<svg width="1478" height="256" viewBox="0 0 1478 256" fill="none" xmlns="http://www.w3.org/2000/svg">
<path fill-rule="evenodd" clip-rule="evenodd" d="M128.933 0C200.204 0 257.865 57.2444 257.865 128C257.865 198.756 200.204 256 128.933 256C57.6615 256 0 198.756 0 128C0 108.622 4.29775 90.1333 12.177 73.7778C12.8933 78.0444 13.9677 82.3111 15.7584 86.2222C18.6236 92.9778 22.5632 98.8444 27.7563 104C32.7704 108.978 38.8588 113.067 45.6636 115.911C52.1102 118.578 59.2731 120 66.6151 120H77.7177H80.5828V117.156V95.6444V92.8H77.7177H66.6151C62.8546 92.8 59.2731 92.0889 56.2289 90.6667C52.8265 89.2444 49.7823 87.2889 47.2753 84.8C44.7682 82.3111 42.6194 79.2889 41.1868 75.9111C39.9333 72.7111 39.0379 69.3333 39.0379 65.7778V65.6V65.4222C39.0379 61.8667 39.7542 58.3111 41.1868 55.2889C42.6194 51.9111 44.5892 48.8889 47.0962 46.4C49.6032 43.9111 52.6474 41.7778 56.0498 40.5333C59.2731 39.2889 62.8546 38.4 66.4361 38.4C70.1966 38.4 73.599 39.1111 76.8223 40.5333C80.2247 41.9556 83.2689 43.9111 85.7759 46.4C88.283 48.8889 90.4318 51.9111 91.6854 55.2889C92.9389 58.4889 93.8342 62.0444 93.8342 65.6V106.489V147.378C93.8342 154.667 95.2668 161.778 97.9529 168.178C100.818 174.933 104.758 180.8 109.951 185.956C114.965 190.933 121.053 195.022 127.858 197.867C134.305 200.533 141.468 201.956 148.81 201.956C156.152 201.956 163.315 200.533 169.761 197.867C176.387 195.022 182.475 191.111 187.668 185.956C192.683 180.978 196.801 174.933 199.666 168.178C201.994 162.667 203.427 156.622 203.785 150.222H203.964V147.378V146.311V145.6C203.785 138.844 202.352 132.622 199.845 126.578C196.98 120 193.041 113.956 187.848 108.8C182.833 103.822 176.745 99.7333 169.94 96.8889C163.494 94.2222 156.331 92.8 148.989 92.8H137.886H135.021V95.6444V117.156V120H137.886H148.989C152.749 120 156.331 120.711 159.375 122.133C162.777 123.556 165.822 125.511 168.329 128.178C170.836 130.667 172.984 133.689 174.417 137.067C175.671 140.267 176.566 143.644 176.566 147.2V147.378V147.556C176.566 151.111 175.85 154.667 174.417 157.689C172.984 161.067 171.015 164.089 168.508 166.578C166.001 169.067 162.956 171.2 159.554 172.444C156.331 173.689 152.749 174.578 149.168 174.578C145.586 174.578 142.005 173.867 138.782 172.444C135.379 171.022 132.335 169.067 129.828 166.578C127.321 164.089 125.172 161.067 123.918 157.689C122.665 154.489 121.77 150.933 121.77 147.378V106.489V65.6C121.77 58.3111 120.337 51.2 117.651 44.8C114.786 38.0444 110.846 32.1778 105.653 27.0222C100.639 22.0444 94.5505 17.9556 87.7457 15.1111C83.9852 13.5111 79.8665 12.4444 75.7479 11.7333C91.6853 4.08889 109.772 0 128.933 0Z" fill="#4250E4"/>
<path d="M1442.4 188.767C1434.32 188.767 1427.29 186.767 1421.32 182.768C1415.34 178.769 1410.72 173.295 1407.45 166.345C1404.19 159.395 1402.56 151.474 1402.56 142.583C1402.56 133.653 1404.19 125.694 1407.45 118.706C1410.75 111.717 1415.28 106.204 1421.02 102.166C1426.77 98.1284 1433.33 96.1094 1440.71 96.1094C1445.72 96.1094 1450.45 97.1189 1454.92 99.1378C1459.42 101.118 1463.38 103.991 1466.8 107.757C1470.26 111.523 1472.95 116.065 1474.89 121.385C1476.87 126.704 1477.86 132.683 1477.86 139.322V143.748H1407.05V137.284H1470.76C1470.76 130.8 1469.44 124.956 1466.8 119.754C1464.16 114.551 1460.57 110.416 1456.03 107.349C1451.48 104.282 1446.38 102.748 1440.71 102.748C1434.77 102.748 1429.47 104.418 1424.81 107.757C1420.19 111.057 1416.52 115.522 1413.8 121.152C1411.12 126.781 1409.73 133.071 1409.61 140.021V142.933C1409.61 150.387 1410.91 157.085 1413.51 163.025C1416.15 168.927 1419.92 173.605 1424.81 177.061C1429.7 180.477 1435.56 182.186 1442.4 182.186C1447.29 182.186 1451.46 181.37 1454.92 179.74C1458.41 178.07 1461.27 176.051 1463.48 173.683C1465.69 171.314 1467.36 169.024 1468.49 166.811L1474.95 169.431C1473.59 172.421 1471.48 175.411 1468.6 178.4C1465.77 181.351 1462.16 183.816 1457.77 185.796C1453.42 187.777 1448.3 188.767 1442.4 188.767Z" fill="white"/>
<path d="M1361.57 188.767C1353.96 188.767 1347.26 186.767 1341.48 182.768C1335.69 178.73 1331.17 173.217 1327.91 166.228C1324.68 159.24 1323.07 151.319 1323.07 142.467C1323.07 133.615 1324.7 125.694 1327.97 118.706C1331.23 111.717 1335.75 106.204 1341.54 102.166C1347.32 98.1284 1353.98 96.1094 1361.51 96.1094C1367.18 96.1094 1372.34 97.2742 1377 99.6038C1381.7 101.933 1385.58 105.175 1388.65 109.329C1391.76 113.483 1393.74 118.298 1394.59 123.772H1387.37C1386.2 117.715 1383.29 112.707 1378.63 108.747C1374.01 104.748 1368.32 102.748 1361.57 102.748C1355.51 102.748 1350.12 104.456 1345.38 107.873C1340.64 111.251 1336.91 115.929 1334.2 121.909C1331.48 127.849 1330.12 134.663 1330.12 142.35C1330.12 149.921 1331.44 156.716 1334.08 162.734C1336.72 168.713 1340.41 173.45 1345.15 176.944C1349.88 180.438 1355.36 182.186 1361.57 182.186C1365.96 182.186 1369.96 181.312 1373.57 179.565C1377.22 177.818 1380.26 175.333 1382.71 172.11C1385.16 168.888 1386.77 165.122 1387.54 160.812H1394.77C1393.91 166.325 1391.97 171.179 1388.94 175.372C1385.91 179.565 1382.05 182.846 1377.35 185.214C1372.65 187.582 1367.39 188.767 1361.57 188.767Z" fill="white"/>
<path d="M1273.2 188.825C1268.04 188.825 1263.3 187.796 1258.99 185.738C1254.72 183.68 1251.28 180.671 1248.68 176.711C1246.12 172.751 1244.84 167.937 1244.84 162.268C1244.84 158.541 1245.5 155.26 1246.82 152.426C1248.14 149.591 1250.18 147.145 1252.93 145.088C1255.69 143.03 1259.22 141.341 1263.53 140.021C1267.84 138.662 1272.99 137.614 1278.96 136.876C1283.51 136.332 1287.56 135.808 1291.14 135.304C1294.71 134.76 1297.5 133.925 1299.52 132.799C1301.58 131.673 1302.61 129.965 1302.61 127.674V123.947C1302.61 117.424 1300.55 112.241 1296.44 108.397C1292.32 104.554 1286.65 102.632 1279.43 102.632C1273.02 102.632 1267.63 104.049 1263.24 106.883C1258.89 109.679 1255.84 113.289 1254.1 117.715L1247.4 115.211C1249.11 110.94 1251.57 107.388 1254.8 104.554C1258.06 101.72 1261.78 99.6038 1265.98 98.206C1270.21 96.8083 1274.64 96.1094 1279.26 96.1094C1283.26 96.1094 1287.06 96.6724 1290.67 97.7984C1294.32 98.9243 1297.56 100.633 1300.4 102.923C1303.27 105.214 1305.54 108.145 1307.21 111.717C1308.88 115.25 1309.71 119.482 1309.71 124.413V186.903H1302.61V170.771H1302.09C1300.53 174.11 1298.4 177.158 1295.68 179.914C1293 182.632 1289.76 184.806 1285.95 186.437C1282.19 188.029 1277.94 188.825 1273.2 188.825ZM1273.9 182.244C1279.49 182.244 1284.44 180.885 1288.75 178.167C1293.1 175.411 1296.49 171.644 1298.94 166.869C1301.39 162.093 1302.61 156.677 1302.61 150.62V137.458C1301.72 138.235 1300.42 138.934 1298.71 139.555C1297.04 140.137 1295.14 140.661 1293 141.127C1290.9 141.554 1288.69 141.943 1286.36 142.292C1284.07 142.603 1281.84 142.894 1279.66 143.166C1273.14 143.942 1267.82 145.146 1263.71 146.777C1259.63 148.368 1256.64 150.465 1254.74 153.066C1252.87 155.668 1251.94 158.813 1251.94 162.501C1251.94 168.597 1254.04 173.411 1258.23 176.944C1262.42 180.477 1267.65 182.244 1273.9 182.244Z" fill="white"/>
<path d="M1231.57 67.6304V186.903H1224.46V67.6304H1231.57Z" fill="white"/>
<path d="M1139.05 220.448V97.4489H1145.98V117.424H1146.85C1148.25 113.581 1150.21 110.047 1152.73 106.825C1155.29 103.602 1158.46 101.021 1162.22 99.0796C1166.03 97.0995 1170.49 96.1094 1175.62 96.1094C1182.84 96.1094 1189.13 98.0895 1194.49 102.049C1199.85 106.01 1204 111.484 1206.95 118.473C1209.9 125.422 1211.38 133.401 1211.38 142.409C1211.38 151.416 1209.88 159.414 1206.89 166.403C1203.94 173.353 1199.79 178.827 1194.43 182.826C1189.11 186.786 1182.88 188.767 1175.74 188.767C1170.65 188.767 1166.19 187.796 1162.34 185.855C1158.54 183.913 1155.33 181.331 1152.73 178.109C1150.17 174.848 1148.21 171.276 1146.85 167.393H1146.15V220.448H1139.05ZM1146.03 142.35C1146.03 149.96 1147.2 156.774 1149.53 162.792C1151.86 168.771 1155.2 173.508 1159.55 177.002C1163.89 180.458 1169.08 182.186 1175.1 182.186C1181.19 182.186 1186.41 180.438 1190.76 176.944C1195.15 173.411 1198.49 168.635 1200.78 162.617C1203.11 156.599 1204.27 149.844 1204.27 142.35C1204.27 134.857 1203.13 128.121 1200.84 122.142C1198.55 116.162 1195.23 111.445 1190.88 107.99C1186.53 104.495 1181.27 102.748 1175.1 102.748C1169 102.748 1163.78 104.476 1159.43 107.931C1155.12 111.348 1151.8 116.046 1149.47 122.025C1147.18 127.965 1146.03 134.741 1146.03 142.35Z" fill="white"/>
<path d="M1124.17 97.4489V103.796H1085.09V97.4489H1124.17ZM1098.31 76.0171H1105.36V165.762C1105.36 169.412 1106.06 172.402 1107.46 174.731C1108.89 177.022 1110.76 178.73 1113.05 179.856C1115.38 180.943 1117.86 181.487 1120.5 181.487C1121.79 181.487 1122.89 181.39 1123.82 181.196C1124.79 181.001 1125.71 180.749 1126.56 180.438L1128.31 186.903C1127.22 187.291 1126.02 187.621 1124.7 187.893C1123.38 188.204 1121.82 188.359 1120.04 188.359C1116.31 188.359 1112.78 187.524 1109.44 185.855C1106.14 184.185 1103.46 181.759 1101.4 178.575C1099.34 175.391 1098.31 171.547 1098.31 167.044V76.0171Z" fill="white"/>
<path d="M1044.1 188.767C1036.03 188.767 1029 186.767 1023.02 182.768C1017.04 178.769 1012.42 173.295 1009.16 166.345C1005.9 159.395 1004.27 151.474 1004.27 142.583C1004.27 133.653 1005.9 125.694 1009.16 118.706C1012.46 111.717 1016.98 106.204 1022.73 102.166C1028.47 98.1284 1035.04 96.1094 1042.41 96.1094C1047.42 96.1094 1052.16 97.1189 1056.62 99.1378C1061.13 101.118 1065.09 103.991 1068.5 107.757C1071.96 111.523 1074.66 116.065 1076.6 121.385C1078.58 126.704 1079.57 132.683 1079.57 139.322V143.748H1008.75V137.284H1072.46C1072.46 130.8 1071.14 124.956 1068.5 119.754C1065.86 114.551 1062.27 110.416 1057.73 107.349C1053.19 104.282 1048.08 102.748 1042.41 102.748C1036.47 102.748 1031.17 104.418 1026.51 107.757C1021.89 111.057 1018.22 115.522 1015.51 121.152C1012.83 126.781 1011.43 133.071 1011.31 140.021V142.933C1011.31 150.387 1012.61 157.085 1015.22 163.025C1017.86 168.927 1021.62 173.605 1026.51 177.061C1031.41 180.477 1037.27 182.186 1044.1 182.186C1048.99 182.186 1053.17 181.37 1056.62 179.74C1060.12 178.07 1062.97 176.051 1065.18 173.683C1067.4 171.314 1069.07 169.024 1070.19 166.811L1076.66 169.431C1075.3 172.421 1073.18 175.411 1070.31 178.4C1067.47 181.351 1063.86 183.816 1059.48 185.796C1055.13 187.777 1050 188.767 1044.1 188.767Z" fill="white"/>
<path d="M947.593 151.96L947.476 141.768H949.34L994.067 97.4486H1003.33L962.269 138.215L961.57 138.507L947.593 151.96ZM941.419 186.903V67.6304H948.525V186.903H941.419ZM996.106 186.903L958.367 139.206L963.492 134.488L1005.19 186.903H996.106Z" fill="white"/>
<path d="M897.005 186.903V97.4486H903.935V111.426H904.576C906.517 106.844 909.798 103.175 914.418 100.419C919.038 97.6233 924.299 96.2256 930.201 96.2256C930.822 96.2256 931.443 96.2256 932.065 96.2256C932.686 96.2256 933.268 96.245 933.812 96.2838V103.447C933.346 103.408 932.783 103.35 932.123 103.272C931.502 103.156 930.725 103.098 929.793 103.098C924.824 103.098 920.397 104.165 916.515 106.301C912.671 108.436 909.643 111.387 907.43 115.153C905.217 118.88 904.11 123.151 904.11 127.965V186.903H897.005Z" fill="white"/>
<path d="M842.18 188.825C837.016 188.825 832.28 187.796 827.97 185.738C823.699 183.68 820.263 180.671 817.662 176.711C815.099 172.751 813.818 167.937 813.818 162.268C813.818 158.541 814.478 155.26 815.798 152.426C817.118 149.591 819.157 147.145 821.913 145.088C824.67 143.03 828.203 141.341 832.513 140.021C836.822 138.662 841.967 137.614 847.946 136.876C852.488 136.332 856.546 135.808 860.118 135.304C863.69 134.76 866.485 133.925 868.504 132.799C870.562 131.673 871.591 129.965 871.591 127.674V123.947C871.591 117.424 869.533 112.241 865.417 108.397C861.302 104.554 855.633 102.632 848.412 102.632C842.005 102.632 836.609 104.049 832.221 106.883C827.873 109.679 824.825 113.289 823.078 117.715L816.38 115.211C818.089 110.94 820.554 107.388 823.777 104.554C827.038 101.72 830.765 99.6038 834.959 98.206C839.191 96.8083 843.617 96.1094 848.237 96.1094C852.236 96.1094 856.041 96.6724 859.652 97.7984C863.301 98.9243 866.543 100.633 869.378 102.923C872.251 105.214 874.522 108.145 876.192 111.717C877.861 115.25 878.696 119.482 878.696 124.413V186.903H871.591V170.771H871.067C869.514 174.11 867.378 177.158 864.66 179.914C861.981 182.632 858.739 184.806 854.935 186.437C851.168 188.029 846.917 188.825 842.18 188.825ZM842.879 182.244C848.47 182.244 853.42 180.885 857.73 178.167C862.078 175.411 865.476 171.644 867.922 166.869C870.368 162.093 871.591 156.677 871.591 150.62V137.458C870.698 138.235 869.397 138.934 867.689 139.555C866.019 140.137 864.117 140.661 861.981 141.127C859.885 141.554 857.672 141.943 855.342 142.292C853.051 142.603 850.819 142.894 848.645 143.166C842.122 143.942 836.803 145.146 832.687 146.777C828.611 148.368 825.621 150.465 823.719 153.066C821.855 155.668 820.923 158.813 820.923 162.501C820.923 168.597 823.02 173.411 827.213 176.944C831.406 180.477 836.628 182.244 842.879 182.244Z" fill="white"/>
<path d="M689.442 67.6304H697.362L743.313 176.42H744.128L790.078 67.6304H797.999V186.903H791.01V84.9273H790.311L747.156 186.903H740.284L697.129 84.9273H696.431V186.903H689.442V67.6304Z" fill="white"/>
<path d="M592.22 134.313V186.903H571.953V97.4489H591.346V112.532H592.453C594.472 107.563 597.733 103.622 602.237 100.71C606.741 97.7596 612.332 96.2842 619.01 96.2842C625.183 96.2842 630.56 97.6043 635.142 100.244C639.723 102.845 643.276 106.65 645.8 111.659C648.362 116.667 649.643 122.782 649.643 130.004V186.903H629.376V132.974C629.376 126.878 627.784 122.122 624.601 118.706C621.456 115.25 617.127 113.522 611.613 113.522C607.847 113.522 604.508 114.338 601.596 115.968C598.685 117.599 596.394 119.967 594.724 123.073C593.094 126.18 592.259 129.926 592.22 134.313Z" fill="white"/>
<path d="M529.086 188.708C520.117 188.708 512.391 186.825 505.907 183.059C499.462 179.254 494.492 173.916 490.998 167.044C487.542 160.133 485.815 152.018 485.815 142.7C485.815 133.498 487.542 125.422 490.998 118.473C494.492 111.484 499.384 106.048 505.674 102.166C512.003 98.2449 519.418 96.2842 527.921 96.2842C533.318 96.2842 538.443 97.1578 543.296 98.9049C548.188 100.652 552.517 103.35 556.283 107C560.088 110.649 563.078 115.328 565.252 121.035C567.426 126.742 568.513 133.537 568.513 141.419V147.825H495.657V133.848H549.003C548.965 129.693 548.072 126.005 546.324 122.782C544.616 119.521 542.19 116.958 539.045 115.095C535.939 113.231 532.308 112.299 528.154 112.299C523.728 112.299 519.845 113.367 516.506 115.502C513.167 117.599 510.566 120.394 508.702 123.889C506.877 127.344 505.946 131.13 505.907 135.245V147.126C505.907 152.484 506.877 157.085 508.819 160.929C510.76 164.733 513.478 167.645 516.972 169.664C520.505 171.683 524.621 172.693 529.319 172.693C532.425 172.693 535.24 172.246 537.763 171.353C540.326 170.46 542.52 169.14 544.344 167.393C546.208 165.646 547.625 163.472 548.596 160.87L567.64 163.258C566.359 168.383 563.99 172.848 560.535 176.653C557.079 180.458 552.672 183.428 547.315 185.564C541.995 187.66 535.919 188.708 529.086 188.708Z" fill="white"/>
<path d="M402.239 220.448V97.4489H422.156V112.183H423.437C424.525 110.086 426.039 107.815 427.98 105.369C429.96 102.884 432.639 100.749 436.017 98.9631C439.395 97.1772 443.743 96.2842 449.062 96.2842C456.012 96.2842 462.283 98.0702 467.874 101.642C473.464 105.175 477.891 110.377 481.152 117.25C484.452 124.083 486.102 132.45 486.102 142.35C486.102 152.096 484.491 160.424 481.268 167.335C478.046 174.207 473.639 179.468 468.048 183.117C462.496 186.728 456.187 188.534 449.121 188.534C443.918 188.534 439.608 187.68 436.192 185.971C432.814 184.224 430.115 182.127 428.097 179.681C426.078 177.235 424.525 174.945 423.437 172.809H422.506V220.448H402.239ZM422.156 142.176C422.156 148.077 422.991 153.26 424.66 157.725C426.33 162.152 428.757 165.607 431.94 168.092C435.163 170.538 439.084 171.761 443.704 171.761C448.441 171.761 452.421 170.48 455.643 167.917C458.866 165.355 461.312 161.841 462.981 157.376C464.651 152.911 465.486 147.844 465.486 142.176C465.486 136.546 464.67 131.537 463.04 127.15C461.409 122.763 458.963 119.307 455.702 116.784C452.479 114.26 448.48 112.998 443.704 112.998C439.045 112.998 435.105 114.221 431.882 116.667C428.698 119.074 426.272 122.472 424.602 126.859C422.972 131.207 422.156 136.313 422.156 142.176Z" fill="white"/>
<path d="M397.139 127.267C397.139 140.079 394.751 151.067 389.976 160.23C385.2 169.354 378.697 176.362 370.466 181.254C362.274 186.107 352.975 188.534 342.57 188.534C332.164 188.534 322.846 186.107 314.615 181.254C306.384 176.362 299.881 169.354 295.105 160.23C290.368 151.067 288 140.079 288 127.267C288 114.454 290.368 103.486 295.105 94.3622C299.881 85.1993 306.384 78.1912 314.615 73.338C322.846 68.446 332.164 66 342.57 66C352.975 66 362.274 68.446 370.466 73.338C378.697 78.1912 385.2 85.1993 389.976 94.3622C394.751 103.486 397.139 114.454 397.139 127.267ZM376.29 127.267C376.29 118.065 374.834 110.3 371.922 103.971C369.049 97.643 365.069 92.8674 359.983 89.6448C354.936 86.3835 349.131 84.7528 342.57 84.7528C336.008 84.7528 330.184 86.3835 325.098 89.6448C320.051 92.8674 316.09 97.643 313.217 103.971C310.344 110.3 308.908 118.065 308.908 127.267C308.908 136.468 310.344 144.233 313.217 150.562C316.09 156.891 320.051 161.686 325.098 164.947C330.184 168.17 336.008 169.781 342.57 169.781C349.131 169.781 354.936 168.17 359.983 164.947C365.069 161.686 369.049 156.891 371.922 150.562C374.834 144.233 376.29 136.468 376.29 127.267Z" fill="white"/>
</svg>
